<svg width="460" height="350" viewBox="0 0 460 350" fill="none" xmlns="http://www.w3.org/2000/svg">
<path d="M163.2 0H170.9L169.7 44.9H155.2L153.2 26.4L151.2 44.9H136.6L135.5 0H143.1L143.7 37.2H144.5L149.4 0H157L161.9 37.2H162.7L163.2 0Z" fill="#81B3D3"/>
<path d="M195 37.2V45H174.1V0H195V7.7H181.7V18.5H192.3V26.2H181.7V37.1H195V37.2Z" fill="#81B3D3"/>
<path d="M216.4 37.2V45H198.1V0H205.7V37.2H216.4Z" fill="#81B3D3"/>
<path d="M232.6 28.4L240.3 26.6V40.2C240.3 42.8 238.1 44.9 235.6 44.9H224.1C221.5 44.9 219.4 42.7 219.4 40.2V4.7C219.4 2.1 221.5 0 224.1 0H235.6C238.1 0 240.3 2.1 240.3 4.7V13.8L232.6 15.6V7.6H227.1V37.1H232.6V28.4Z" fill="#81B3D3"/>
<path d="M261.1 0C263.6 0 265.8 2.1 265.8 4.7V40.1C265.8 42.7 263.6 44.8 261.1 44.8H249.6C247 44.8 244.9 42.6 244.9 40.1V4.7C244.9 2.1 247 0 249.6 0H261.1ZM258.1 7.7H252.6V37.2H258.1V7.7Z" fill="#81B3D3"/>
<path d="M290.8 0H298.4V44.9H290.8V22.8L287.7 34.2H280.2L277.2 22.8V44.9H269.6V0H277.2L284 21.7L290.8 0Z" fill="#81B3D3"/>
<path d="M323.1 37.2V45H302.2V0H323.1V7.7H309.8V18.5H320.4V26.2H309.8V37.1H323.1V37.2Z" fill="#81B3D3"/>
<path d="M44.5 157.6C40.9 154.6 36.4 152.6 31.6 152.6C28 152.6 23.2999 154.7 23.2999 158.9C23.2999 163.3 28.6 165 31.9 166L36.9 167.5C47.2999 170.6 55.4 175.8 55.4 187.9C55.4 195.3 53.6 203 47.7 208C41.7999 213 34 215 26.5 215C17.1 215 7.79995 211.8 0.199951 206.5L8.29995 191C13.2 195.3 18.9 198.7 25.6 198.7C30.2 198.7 35 196.4 35 191.2C35 185.7 27.4 183.9 23.2 182.7C11 179.1 2.99995 176 2.99995 161.5C2.99995 146.3 13.7999 136.4 28.7999 136.4C36.2999 136.4 45.6 138.8 52.2 142.6L44.5 157.6Z" fill="white"/>
<path d="M91.7999 154.8V167.3H113.7V183.8H91.7999V196.7H115V213.2H72.3999V138.4H115V154.9L91.7999 154.8Z" fill="white"/>
<path d="M129.4 138.4H157C177.8 138.4 195 154.8 195 175.8C195 196.8 177.7 213.2 157 213.2H129.4V138.4ZM148.9 196.7H153.3C164.9 196.7 174.8 190.3 174.8 175.8C174.8 162.4 166 154.9 153.5 154.9H148.9V196.7Z" fill="white"/>
<path d="M286.9 174.4C286.9 198.6 269.5 215.7 245.5 215.7C221.5 215.7 204.1 198.6 204.1 174.4C204.1 151.8 224 135.9 245.5 135.9C267 135.9 286.9 151.8 286.9 174.4ZM224.3 174.5C224.3 187.4 233.8 196.8 245.4 196.8C257 196.8 266.5 187.4 266.5 174.5C266.5 164.2 257 154.7 245.4 154.7C233.9 154.7 224.3 164.2 224.3 174.5Z" fill="white"/>
<path d="M297.2 138.4H316.7L352.3 184.2H352.5V138.4H372V213.2H352.5L316.9 167.3H316.7V213.2H297.2V138.4Z" fill="white"/>
<path d="M407.3 200.2L402.1 213.2H381.5L410.3 138.4H431.5L459.7 213.2H439L434.1 200.2H407.3ZM420.9 161.5H420.7L412.7 185.3H428.9L420.9 161.5Z" fill="white"/>
<path d="M108.1 287.7C115.8 285.1 116.3 275.5 108.8 275.5C106.7 275.5 104.2 277 102.5 279.9L92.3 297.6C91.8 298.4 91.4 299.1 90.8 299.8C88.2 296.2 88.9 290.8 92.6 288.4L91.1 286.5C83.1 291.6 85.5 306.2 98.8 306.2C110.1 306.2 115.4 292.6 108.1 287.7ZM98.7 303.3C96.4 303.3 94.7 302.8 93.2 302C93.9 301.2 94.5 300.3 95.1 299.3L101.5 288.2L102.5 288.3C111.4 290.2 107.9 303.3 98.7 303.3ZM102.8 286L105.9 280.7C108.7 275.9 112.2 278.7 110.3 282.3C108.8 285.1 106.7 285.9 102.8 286Z" fill="white"/>
<path d="M140.2 300C139.6 302.2 140.8 304.1 143.3 304.1C144.8 304.1 146.7 303.1 148.6 301.6C148.8 303.1 150 304.1 151.9 304.1C153.9 304.1 156.1 302.7 158.3 300.7C157.9 302.7 158.8 304.1 160.7 304.1C162.8 304.1 165.1 302.2 166.9 300.5C166.5 302.5 167.7 304.1 170.1 304.1C173.2 304.1 176.8 300.7 180 297.1C180 297 179.9 297 179.9 296.9C182 294.5 183.8 291.9 185.2 290.1C183.7 294 184.5 301.1 180.9 301.1C179.6 301.1 179.1 299.7 179.1 299.7L176.7 300.9C176.7 300.9 177.4 304 180.9 304C181.3 304 181.6 304 182 303.9H182.1C184.9 303.5 187.6 301.8 190 299.7C190.1 302.2 192 304 195.1 304C199.4 304 203.7 300.6 206.8 297C206.5 296.5 205.9 295.9 205.4 295.7L205.1 296C202.4 299.2 198.9 301.7 196.2 301.7C193.9 301.7 192.5 300.2 194.2 297.2L194.6 296.5C197 297.5 201.6 297 204.5 292.1L205 291.2C207 287.7 205.1 285.1 202 285.1C198.9 285.1 196.5 286.7 194.9 289.5L191.2 295.8H191.1L190.8 296.1C189.4 297.7 187.7 299.2 186.2 300.2C187.4 296.6 187.1 291 189.5 286.2L186.7 284.7C185.1 286.9 181.7 291.8 178.3 295.8L178.4 295.9L178.3 296.1C175.6 299.3 172.9 301.8 171.2 301.8C170.4 301.8 169.9 301.2 170.8 299.7L178.9 285.5H175.1L168.4 297.3C165.5 299.9 163.3 301.4 162.6 301.1C161.7 300.7 162.6 299.3 163.1 298.5L170.5 285.6H166.7L160.7 296C160.6 295.9 160.5 295.9 160.4 295.8L160.1 296.1C157.4 299.3 154.7 301.8 153 301.8C152.2 301.8 151.7 301.2 152.6 299.7L158.7 289H156.5C156.6 287.4 155 285.2 152.5 285.2C150.5 285.2 147.6 286.8 146 289.6L142.2 296.2C142 296 141.8 295.9 141.6 295.8L141.3 296.1C138.6 299.3 135.1 301.8 132.4 301.8C130.1 301.8 128.7 300.3 130.4 297.3L134.3 290.5C136.5 286.7 140.4 287.4 138.1 291.3L137.6 292.2H140.7L141.2 291.3C143.2 287.8 141.3 285.2 138.2 285.2C135.1 285.2 132.7 286.8 131.1 289.6L127.3 296.1C127.2 296 127.1 296 127 295.9L126.7 296.2C124 299.4 120.5 301.9 117.8 301.9C115.5 301.9 114.1 300.4 115.8 297.4L116.2 296.7C118.6 297.7 123.2 297.2 126.1 292.3L126.6 291.4C128.6 287.9 126.7 285.3 123.6 285.3C120.5 285.3 118.1 286.9 116.5 289.7L112.5 296.5C110.1 300.5 112.2 304.3 116.7 304.3C120 304.3 123.4 302.3 126.1 299.7C126 302.3 128 304.3 131.2 304.3C134.4 304.1 137.5 302.3 140.2 300ZM198.2 290.4C200.4 286.6 204.3 287.3 202 291.2L201.5 292.1C199.7 295.2 197.2 295.1 195.8 294.6L198.2 290.4ZM144 299.7L149.3 290.5C151.3 287 155.4 287.9 153.5 291.3L150.5 296.5C148.2 300.1 145.9 301.8 144.4 301.8C143.6 301.7 143.1 301.2 144 299.7ZM119.8 290.4C122 286.6 125.9 287.3 123.6 291.2L123.1 292.1C121.3 295.2 118.8 295.1 117.4 294.6L119.8 290.4Z" fill="white"/>
<path d="M248.4 304.1C252.7 304.1 257 300.7 260.1 297.1C259.8 296.6 259.2 296 258.7 295.8L258.4 296.1C255.7 299.3 252.2 301.8 249.5 301.8C247.2 301.8 245.8 300.3 247.5 297.3L247.9 296.6C250.3 297.6 254.9 297.1 257.8 292.2L258.3 291.3C260.3 287.8 258.4 285.2 255.3 285.2C252.2 285.2 249.8 286.8 248.2 289.6L244.5 295.9C244.5 295.9 244.4 295.9 244.4 295.8L244.1 296.1C241.4 299.3 238.7 301.8 237 301.8C236.2 301.8 235.7 301.2 236.6 299.7L242.1 290.1C243.7 287.2 242.2 285.1 240.1 285.1C238.5 285.1 236.7 286 234.8 288L240.9 277.5H237L226.3 296C226.2 295.9 226 295.8 225.9 295.7L225.6 296C222.9 299.2 220.2 301.7 218.5 301.7C217.7 301.7 217.2 301.1 218.1 299.6L226.2 285.4H229.3L230.4 283.6H227.3L230.9 277.4H227.1L223.5 283.6H220.1L219 285.4H222.5L214.9 298.6C213.3 301.4 214.4 304 217.5 304C219.4 304 221.4 302.8 223.5 301L222 303.6H225.8L231.6 293.6C237.4 286.3 240 287.2 238.4 290L233.5 298.6C231.9 301.4 233 304 236.1 304C238.4 304 241 302.2 243.4 299.8C243.4 302.3 245.3 304.1 248.4 304.1ZM251.5 290.4C253.7 286.6 257.6 287.3 255.3 291.2L254.8 292.1C253 295.2 250.5 295.1 249.1 294.6L251.5 290.4Z" fill="white"/>
<path d="M363.4 295.8L363.1 296.1C360.4 299.3 357.7 301.8 356 301.8C355.2 301.8 354.7 301.2 355.6 299.7L368.4 277.5H364.6L359 287.1C358.3 286 357.1 285.1 355.5 285.1C353.5 285.1 350.6 286.7 349 289.5L345.3 295.9C345.2 295.9 345.1 295.8 345.1 295.8L344.8 296.1C342.1 299.3 339.4 301.8 337.7 301.8C336.9 301.8 336.4 301.2 337.3 299.7L342.8 290.1C344.4 287.2 342.9 285.1 340.8 285.1C339.2 285.1 337.4 286 335.5 287.9L336.9 285.4H333.1L327 295.9C326.9 295.8 326.8 295.7 326.6 295.7L326.3 296C323.6 299.2 320.9 301.7 319.2 301.7C318.4 301.7 317.9 301.1 318.8 299.6L324.9 288.9H323C323.1 287.3 321.5 285.1 319 285.1C317 285.1 314.1 286.7 312.5 289.5L308.8 295.8L308.6 296C305.9 299.2 303.2 301.7 301.5 301.7C300.7 301.7 300.2 301.1 301.1 299.6L304.9 293C306.2 290.7 305.6 289.4 304.4 287.9L302.3 285.3C301.8 284.6 301.8 283.8 302.5 283.1L300.5 280.9C298.3 282.8 298.2 285 299.5 286.7L299.8 287.1C298.1 289.5 295.9 292.7 293.4 295.6C293.5 295.7 293.6 295.8 293.7 295.9C290.6 299.5 287.9 301.8 284.9 303.1L289.7 294.9H286L285.6 295.6C283.6 299.1 281.3 301.7 278.3 301.7C275.7 301.7 275.2 299.1 277.5 295.2L278.6 293.3C279.3 293.4 280 293.5 280.8 293.5C294.3 293.5 300.8 275.4 288.9 275.4C286.8 275.4 284.3 276.9 282.6 279.8L276.7 290C274.5 288.8 273.3 286.7 273.3 284.6C273.3 282.8 274.1 281.1 275.7 279.8L274.5 277.6C271.8 279.5 270.6 282.1 270.6 284.7C270.6 287.7 272.3 290.6 275.4 292.2L274.3 294.2C271.6 298.8 272.1 303.9 277.5 303.9C279.1 303.9 280.5 303.4 281.6 302.7L280.6 304.4C275.5 306 272.3 308 272.3 310.9C272.3 314.5 277.9 315.3 280.6 310.6L283.5 305.6C287.4 304.4 291.3 301.7 295.5 296.8C295.4 296.7 295.4 296.6 295.3 296.4C297 294.4 298.4 292.5 301.3 288.6L301.8 289.2C302.3 289.8 302.5 290.6 302 291.4L298 298.4C296.4 301.2 297.5 303.8 300.6 303.8C302.5 303.8 304.6 302.6 306.6 300.8C306.6 302.5 307.7 303.8 309.9 303.8C311.4 303.8 313.3 302.8 315.2 301.3C315.4 302.8 316.6 303.8 318.5 303.8C320.3 303.8 322.3 302.7 324.2 301L322.8 303.4H326.6L332.4 293.3C338.2 286 340.8 287 339.1 289.8L334.2 298.4C332.6 301.2 333.7 303.8 336.8 303.8C338.8 303.8 341 302.4 343.2 300.5C343 302.4 344.2 303.8 346.5 303.8C348 303.8 349.9 302.8 351.8 301.3C352 302.8 353.2 303.8 355.1 303.8C358.2 303.8 361.8 300.4 365 296.8C364.6 296.6 363.9 296 363.4 295.8ZM285.5 281.6C286.6 279.7 287.9 278.8 288.9 278.8C294.9 278.8 290.7 291.1 280.8 291.1H280L285.5 281.6ZM277.4 310.2C276.6 311.6 275.3 311.4 275.3 310.4C275.3 309.4 276.2 308.3 279.1 307.2L277.4 310.2ZM317.1 296.4C314.8 300 312.5 301.7 311 301.7C310.2 301.7 309.7 301.1 310.6 299.6L315.9 290.4C317.9 286.9 322 287.8 320.1 291.2L317.1 296.4ZM353.8 296.2C351.5 300 349.2 301.7 347.6 301.7C346.8 301.7 346.3 301.1 347.2 299.6L352.5 290.4C354.5 286.9 358.6 287.8 356.7 291.2L353.8 296.2Z" fill="white"/>
<path d="M236.7 331.8L236.4 332.1C233.7 335.3 231 337.8 229.3 337.8C228.5 337.8 228 337.2 228.9 335.7L234.4 326.1C236 323.2 234.5 321.1 232.4 321.1C230.8 321.1 229 322 227.1 323.9L228.5 321.4H224.7L218.6 332C218.4 331.9 218.3 331.8 218.1 331.7L217.8 332C216.1 333.9 214 334.8 212.1 334.8L215.7 328.6C218 324.6 215.9 320.9 212.3 320.9C209.4 320.9 207.1 322.1 204.9 325.9L203 329.1L201.4 331.9C201.3 331.8 201.2 331.8 201.1 331.7L200.8 332C197.7 335.6 195 337.9 192 339.2L202.4 321.4H198.6L191.9 333.1C189 335.8 186.7 337.3 186 337C185.1 336.6 186 335.2 186.5 334.4L193.9 321.5H190.1L184 332C183.9 331.9 183.8 331.9 183.7 331.8L183.4 332.1C180.7 335.3 178 337.8 176.3 337.8C175.5 337.8 175 337.2 175.9 335.7L181.4 326.1C183 323.2 181.5 321.1 179.4 321.1C177.8 321.1 176 322 174.1 323.9L175.5 321.4H171.7L165.6 331.9C165.5 331.8 165.4 331.7 165.2 331.7L164.9 332C162.2 335.2 159.5 337.7 157.8 337.7C157 337.7 156.5 337.1 157.4 335.6L163.5 324.9H161.3C161.4 323.3 159.8 321.1 157.3 321.1C155.3 321.1 152.4 322.7 150.8 325.5L146.9 332.3C146.6 332.1 146.3 331.9 146.1 331.8L145.8 332.1C143.1 335.3 139.7 337.8 136 337.8C133.4 337.8 131.8 335.2 134.1 331.3L135.2 329.4C135.9 329.5 136.6 329.6 137.4 329.6C141.4 329.6 146 327.5 149 322.3C150.1 320.4 150.5 318.7 150.5 317.2C150.5 313.8 148.3 311.5 145.5 311.5C143.4 311.5 140.9 313 139.2 315.9L133.3 326.1C131.1 324.9 129.9 322.8 129.9 320.7C129.9 318.9 130.7 317.2 132.3 315.9L131.1 313.7C128.4 315.6 127.2 318.2 127.2 320.8C127.2 323.8 128.9 326.7 132 328.3L130.9 330.3C128.2 334.9 129.8 340 135.2 340C139.4 340 142.6 338.1 145.2 335.6C144.4 338 145.6 340 148.3 340C149.8 340 151.7 339 153.6 337.5C153.8 339 155 340 156.9 340C158.7 340 160.7 338.9 162.6 337.2L161.2 339.6H165L170.8 329.5C176.6 322.2 179.2 323.2 177.5 326L172.6 334.6C171 337.4 172.1 340 175.2 340C177.2 340 179.5 338.6 181.7 336.6C181.2 338.7 182.2 340 184.1 340C185.9 340 188 338.5 189.7 336.9L187.6 340.5C182.5 342 179.2 344.1 179.2 347C179.2 350.6 184.8 351.4 187.5 346.7L190.4 341.7C193.6 340.7 196.7 338.7 200 335.5C199.5 340.8 206.5 342 210.8 336.6H211.6C213 336.6 214.9 336.1 216.6 335.1L214.1 339.5H217.9L223.7 329.4C229.5 322.1 232.1 323.1 230.4 325.9L225.5 334.5C223.9 337.3 225 339.9 228.1 339.9C231.2 339.9 234.8 336.5 238 332.9C237.9 332.6 237.2 332 236.7 331.8ZM142.3 317.6C143.4 315.7 144.7 314.8 145.7 314.8C147.1 314.8 147.8 315.7 147.8 317.1C147.8 320.6 143.5 327 137.6 327H136.8L142.3 317.6ZM155.7 332.4C153.4 336 151.1 337.7 149.6 337.7C148.8 337.7 148.3 337.1 149.2 335.6L154.5 326.4C156.5 322.9 160.6 323.8 158.7 327.2L155.7 332.4ZM184.5 346.2C183.7 347.6 182.4 347.4 182.4 346.4C182.4 345.4 183.3 344.3 186.2 343.2L184.5 346.2ZM210.1 332H209.9C208.7 332 207.7 333 207.7 334.3C207.7 334.8 207.8 335.2 208.1 335.6V335.7C206.3 338.8 202 338.2 204.2 334.2L207.1 329.2L208.9 326.1C211.6 321.6 215.2 323.4 212.9 327.3L210.1 332Z" fill="white"/>
<path d="M324.6 333.1C324.4 332.5 323.7 331.9 323.2 331.8L322.9 332.1C321.5 333.7 319.8 335.2 318.3 336.2C319.5 332.6 319.2 327 321.6 322.2L318.8 320.7C317.2 322.9 313.8 327.8 310.4 331.8L310.1 332.1C307.4 335.3 304.7 337.8 303 337.8C302.2 337.8 301.4 337 301.4 335.2V333.6C304.1 333.9 306.9 332.2 308.7 329.1L309.7 327.3C313.2 321.2 307.5 319.2 303.6 322.8L309 313.4H305.2L294.4 332.2C294.2 332 293.9 331.8 293.7 331.7L293.4 332C290.7 335.2 287.2 337.7 284.5 337.7C282.2 337.7 280.8 336.2 282.5 333.2L286.4 326.4C288.6 322.6 292.5 323.3 290.2 327.2L289.7 328.1H292.8L293.3 327.2C295.3 323.7 293.4 321.1 290.3 321.1C287.2 321.1 284.8 322.7 283.2 325.5L279.5 331.9C279.4 331.9 279.3 331.8 279.3 331.8L279 332.1C276.3 335.3 273.6 337.8 271.9 337.8C271.1 337.8 270.6 337.2 271.5 335.7L279.6 321.5H275.8L269.1 333.3C266.2 335.9 264 337.4 263.3 337.1C262.4 336.7 263.3 335.3 263.8 334.5L271.2 321.6H267.4L260 334.3C259.2 335 258.3 335.7 257.6 336.3C258.8 332.7 258.5 327.1 260.9 322.3L258.1 320.8C256.5 323 247.8 334.6 244.3 338.6C244.6 339.1 245.2 339.5 245.7 339.9C247.9 337.4 255.1 328.1 256.4 326.3C254.9 330.2 255.7 337.3 252.1 337.3C250.8 337.3 250.3 335.9 250.3 335.9L247.9 337.1C247.9 337.1 248.6 340.2 252.1 340.2C252.5 340.2 252.8 340.2 253.2 340.1H253.3C255.2 339.8 257.1 339 258.9 337.7C258.9 339.2 259.8 340.2 261.4 340.2C263.5 340.2 265.8 338.3 267.6 336.6C267.2 338.6 268.4 340.2 270.8 340.2C273.2 340.2 275.8 338.3 278.3 335.8C278.3 338.3 280.3 340.2 283.4 340.2C286.5 340.2 289.5 338.5 292.2 336.2L290.1 339.9H293.9L298.2 332.4V335.4C298.2 338.6 298.8 340.3 301.9 340.3C305 340.3 308.6 336.9 311.8 333.3C314 330.8 315.8 328.2 317.2 326.4C315.7 330.3 316.5 337.4 312.9 337.4C311.6 337.4 311.1 336 311.1 336L308.7 337.2C308.7 337.2 309.4 340.3 312.9 340.3C313.3 340.3 313.6 340.3 314 340.2H314.1C317.9 339.5 321.8 336.4 324.6 333.1ZM299.4 330.1L300.5 328.2C304.9 322.1 307.9 323.8 306.5 326.1L304.7 329.2C303.6 331.2 300.3 332.6 299.4 330.1Z" fill="white"/>
<path d="M324.5 335.7C323.3 335.7 322.3 336.7 322.3 337.9C322.3 339.1 323.2 340.1 324.5 340.1C325.7 340.1 326.7 339.2 326.7 337.9C326.7 336.7 325.7 335.7 324.5 335.7Z" fill="white"/>
<path d="M324.7 334.2H328.5L340.4 313.5H336.6L324.7 334.2Z" fill="white"/>
</svg>
