<svg width="461" height="350" viewBox="0 0 461 350" fill="none" xmlns="http://www.w3.org/2000/svg">
<path d="M163.532 0H171.257L170.053 44.9H155.506L153.499 26.4L151.493 44.9H136.845L135.742 0H143.367L143.968 37.2H144.771L149.687 0H157.312L162.228 37.2H163.03L163.532 0Z" fill="#81B3D3"/>
<path d="M195.436 37.2V45H174.468V0H195.436V7.7H182.093V18.5H192.727V26.2H182.093V37.1H195.436V37.2Z" fill="#81B3D3"/>
<path d="M216.906 37.2V45H198.546V0H206.171V37.2H216.906Z" fill="#81B3D3"/>
<path d="M233.159 28.4L240.884 26.6V40.2C240.884 42.8 238.677 44.9 236.169 44.9H224.631C222.023 44.9 219.916 42.7 219.916 40.2V4.7C219.916 2.1 222.023 0 224.631 0H236.169C238.677 0 240.884 2.1 240.884 4.7V13.8L233.159 15.6V7.6H227.641V37.1H233.159V28.4Z" fill="#81B3D3"/>
<path d="M261.752 0C264.26 0 266.467 2.1 266.467 4.7V40.1C266.467 42.7 264.26 44.8 261.752 44.8H250.214C247.606 44.8 245.499 42.6 245.499 40.1V4.7C245.499 2.1 247.606 0 250.214 0H261.752ZM258.742 7.7H253.224V37.2H258.742V7.7Z" fill="#81B3D3"/>
<path d="M291.549 0H299.173V44.9H291.549V22.8L288.439 34.2H280.914L277.904 22.8V44.9H270.279V0H277.904L284.726 21.7L291.549 0Z" fill="#81B3D3"/>
<path d="M323.954 37.2V45H302.986V0H323.954V7.7H310.611V18.5H321.245V26.2H310.611V37.1H323.954V37.2Z" fill="#81B3D3"/>
<path d="M44.4446 157.6C40.8329 154.6 36.3182 152.6 31.5025 152.6C27.8908 152.6 23.1754 154.7 23.1754 158.9C23.1754 163.3 28.4927 165 31.8035 166L36.8198 167.5C47.2538 170.6 55.3802 175.8 55.3802 187.9C55.3802 195.3 53.5743 203 47.6551 208C41.7358 213 33.9103 215 26.3859 215C16.9552 215 7.62481 211.8 0 206.5L8.12644 191C13.0424 195.3 18.761 198.7 25.4829 198.7C30.0979 198.7 34.9136 196.4 34.9136 191.2C34.9136 185.7 27.2888 183.9 23.0751 182.7C10.8353 179.1 2.80914 176 2.80914 161.5C2.80914 146.3 13.6444 136.4 28.6934 136.4C36.2178 136.4 45.5482 138.8 52.1698 142.6L44.4446 157.6Z" fill="white"/>
<path d="M91.899 154.8V167.3H113.87V183.8H91.899V196.7H115.175V213.2H72.4357V138.4H115.175V154.9L91.899 154.8Z" fill="white"/>
<path d="M129.622 138.4H157.312C178.18 138.4 195.436 154.8 195.436 175.8C195.436 196.8 178.079 213.2 157.312 213.2H129.622V138.4ZM149.185 196.7H153.6C165.238 196.7 175.17 190.3 175.17 175.8C175.17 162.4 166.341 154.9 153.8 154.9H149.185V196.7Z" fill="white"/>
<path d="M287.636 174.4C287.636 198.6 270.179 215.7 246.101 215.7C222.022 215.7 204.566 198.6 204.566 174.4C204.566 151.8 224.531 135.9 246.101 135.9C267.671 135.9 287.636 151.8 287.636 174.4ZM224.832 174.5C224.832 187.4 234.363 196.8 246 196.8C257.638 196.8 267.169 187.4 267.169 174.5C267.169 164.2 257.638 154.7 246 154.7C234.463 154.7 224.832 164.2 224.832 174.5Z" fill="white"/>
<path d="M297.97 138.4H317.533L353.249 184.2H353.45V138.4H373.014V213.2H353.45L317.734 167.3H317.533V213.2H297.97V138.4Z" fill="white"/>
<path d="M408.429 200.2L403.212 213.2H382.545L411.439 138.4H432.708L461 213.2H440.233L435.317 200.2H408.429ZM422.073 161.5H421.873L413.847 185.3H430.1L422.073 161.5Z" fill="white"/>
<path d="M108.252 287.7C115.977 285.1 116.479 275.5 108.955 275.5C106.848 275.5 104.34 277 102.634 279.9L92.4007 297.6C91.8991 298.4 91.4978 299.1 90.8958 299.8C88.2873 296.2 88.9896 290.8 92.7017 288.4L91.1968 286.5C83.1707 291.6 85.5785 306.2 98.9219 306.2C110.259 306.2 115.576 292.6 108.252 287.7ZM98.8216 303.3C96.5141 303.3 94.8085 302.8 93.3036 302C94.0059 301.2 94.6079 300.3 95.2098 299.3L101.631 288.2L102.634 288.3C111.563 290.2 108.052 303.3 98.8216 303.3ZM102.935 286L106.045 280.7C108.854 275.9 112.366 278.7 110.459 282.3C108.955 285.1 106.848 285.9 102.935 286Z" fill="white"/>
<path d="M140.457 300C139.855 302.2 141.059 304.1 143.567 304.1C145.072 304.1 146.978 303.1 148.885 301.6C149.085 303.1 150.289 304.1 152.195 304.1C154.202 304.1 156.409 302.7 158.616 300.7C158.215 302.7 159.118 304.1 161.024 304.1C163.131 304.1 165.438 302.2 167.244 300.5C166.843 302.5 168.047 304.1 170.455 304.1C173.565 304.1 177.177 300.7 180.387 297.1C180.387 297 180.287 297 180.287 296.9C182.394 294.5 184.199 291.9 185.604 290.1C184.099 294 184.902 301.1 181.29 301.1C179.986 301.1 179.484 299.7 179.484 299.7L177.076 300.9C177.076 300.9 177.779 304 181.29 304C181.691 304 181.992 304 182.394 303.9H182.494C185.303 303.5 188.012 301.8 190.42 299.7C190.52 302.2 192.426 304 195.536 304C199.85 304 204.164 300.6 207.275 297C206.974 296.5 206.372 295.9 205.87 295.7L205.569 296C202.86 299.2 199.349 301.7 196.64 301.7C194.332 301.7 192.928 300.2 194.633 297.2L195.035 296.5C197.443 297.5 202.058 297 204.967 292.1L205.469 291.2C207.475 287.7 205.569 285.1 202.459 285.1C199.349 285.1 196.941 286.7 195.336 289.5L191.624 295.8H191.523L191.222 296.1C189.818 297.7 188.112 299.2 186.607 300.2C187.811 296.6 187.51 291 189.918 286.2L187.109 284.7C185.504 286.9 182.093 291.8 178.682 295.8L178.782 295.9L178.682 296.1C175.973 299.3 173.264 301.8 171.558 301.8C170.756 301.8 170.254 301.2 171.157 299.7L179.283 285.5H175.471L168.749 297.3C165.84 299.9 163.633 301.4 162.93 301.1C162.027 300.7 162.93 299.3 163.432 298.5L170.856 285.6H167.044L161.024 296C160.924 295.9 160.823 295.9 160.723 295.8L160.422 296.1C157.713 299.3 155.004 301.8 153.299 301.8C152.496 301.8 151.995 301.2 152.898 299.7L159.018 289H156.81C156.911 287.4 155.305 285.2 152.797 285.2C150.791 285.2 147.881 286.8 146.276 289.6L142.464 296.2C142.263 296 142.062 295.9 141.862 295.8L141.561 296.1C138.852 299.3 135.34 301.8 132.632 301.8C130.324 301.8 128.92 300.3 130.625 297.3L134.538 290.5C136.745 286.7 140.658 287.4 138.35 291.3L137.849 292.2H140.959L141.46 291.3C143.467 287.8 141.561 285.2 138.451 285.2C135.34 285.2 132.933 286.8 131.327 289.6L127.515 296.1C127.415 296 127.314 296 127.214 295.9L126.913 296.2C124.204 299.4 120.693 301.9 117.984 301.9C115.677 301.9 114.272 300.4 115.977 297.4L116.379 296.7C118.787 297.7 123.402 297.2 126.311 292.3L126.813 291.4C128.819 287.9 126.913 285.3 123.803 285.3C120.693 285.3 118.285 286.9 116.68 289.7L112.667 296.5C110.259 300.5 112.366 304.3 116.88 304.3C120.191 304.3 123.602 302.3 126.311 299.7C126.211 302.3 128.217 304.3 131.428 304.3C134.638 304.1 137.748 302.3 140.457 300ZM198.646 290.4C200.854 286.6 204.766 287.3 202.459 291.2L201.957 292.1C200.151 295.2 197.643 295.1 196.239 294.6L198.646 290.4ZM144.27 299.7L149.587 290.5C151.593 287 155.707 287.9 153.801 291.3L150.791 296.5C148.483 300.1 146.176 301.8 144.671 301.8C143.868 301.7 143.367 301.2 144.27 299.7ZM119.991 290.4C122.198 286.6 126.11 287.3 123.803 291.2L123.301 292.1C121.495 295.2 118.987 295.1 117.583 294.6L119.991 290.4Z" fill="white"/>
<path d="M249.01 304.1C253.324 304.1 257.638 300.7 260.748 297.1C260.448 296.6 259.846 296 259.344 295.8L259.043 296.1C256.334 299.3 252.823 301.8 250.114 301.8C247.806 301.8 246.402 300.3 248.107 297.3L248.509 296.6C250.916 297.6 255.532 297.1 258.441 292.2L258.943 291.3C260.949 287.8 259.043 285.2 255.933 285.2C252.823 285.2 250.415 286.8 248.81 289.6L245.098 295.9C245.098 295.9 244.997 295.9 244.997 295.8L244.696 296.1C241.987 299.3 239.279 301.8 237.573 301.8C236.77 301.8 236.269 301.2 237.172 299.7L242.69 290.1C244.295 287.2 242.79 285.1 240.683 285.1C239.078 285.1 237.272 286 235.366 288L241.486 277.5H237.573L226.838 296C226.738 295.9 226.537 295.8 226.437 295.7L226.136 296C223.427 299.2 220.718 301.7 219.013 301.7C218.21 301.7 217.708 301.1 218.611 299.6L226.738 285.4H229.848L230.952 283.6H227.841L231.453 277.4H227.641L224.029 283.6H220.618L219.514 285.4H223.026L215.401 298.6C213.796 301.4 214.899 304 218.009 304C219.916 304 221.922 302.8 224.029 301L222.524 303.6H226.337L232.155 293.6C237.974 286.3 240.583 287.2 238.978 290L234.062 298.6C232.456 301.4 233.56 304 236.67 304C238.978 304 241.586 302.2 243.994 299.8C243.994 302.3 245.9 304.1 249.01 304.1ZM252.12 290.4C254.328 286.6 258.24 287.3 255.933 291.2L255.431 292.1C253.625 295.2 251.117 295.1 249.713 294.6L252.12 290.4Z" fill="white"/>
<path d="M364.386 295.8L364.085 296.1C361.376 299.3 358.667 301.8 356.962 301.8C356.159 301.8 355.657 301.2 356.56 299.7L369.402 277.5H365.59L359.971 287.1C359.269 286 358.065 285.1 356.46 285.1C354.453 285.1 351.544 286.7 349.939 289.5L346.227 295.9C346.126 295.9 346.026 295.8 346.026 295.8L345.725 296.1C343.016 299.3 340.307 301.8 338.602 301.8C337.799 301.8 337.298 301.2 338.201 299.7L343.719 290.1C345.324 287.2 343.819 285.1 341.712 285.1C340.107 285.1 338.301 286 336.395 287.9L337.799 285.4H333.987L327.867 295.9C327.767 295.8 327.666 295.7 327.466 295.7L327.165 296C324.456 299.2 321.747 301.7 320.041 301.7C319.239 301.7 318.737 301.1 319.64 299.6L325.76 288.9H323.854C323.954 287.3 322.349 285.1 319.841 285.1C317.834 285.1 314.925 286.7 313.32 289.5L309.608 295.8L309.407 296C306.698 299.2 303.989 301.7 302.284 301.7C301.481 301.7 300.979 301.1 301.882 299.6L305.695 293C306.999 290.7 306.397 289.4 305.193 287.9L303.086 285.3C302.585 284.6 302.585 283.8 303.287 283.1L301.28 280.9C299.073 282.8 298.973 285 300.277 286.7L300.578 287.1C298.873 289.5 296.665 292.7 294.157 295.6C294.258 295.7 294.358 295.8 294.458 295.9C291.348 299.5 288.639 301.8 285.63 303.1L290.445 294.9H286.733L286.332 295.6C284.325 299.1 282.018 301.7 279.008 301.7C276.399 301.7 275.898 299.1 278.205 295.2L279.309 293.3C280.011 293.4 280.714 293.5 281.516 293.5C295.06 293.5 301.581 275.4 289.643 275.4C287.536 275.4 285.028 276.9 283.322 279.8L277.403 290C275.196 288.8 273.992 286.7 273.992 284.6C273.992 282.8 274.794 281.1 276.399 279.8L275.196 277.6C272.487 279.5 271.283 282.1 271.283 284.7C271.283 287.7 272.988 290.6 276.098 292.2L274.995 294.2C272.286 298.8 272.788 303.9 278.205 303.9C279.811 303.9 281.215 303.4 282.319 302.7L281.315 304.4C276.199 306 272.988 308 272.988 310.9C272.988 314.5 278.607 315.3 281.315 310.6L284.225 305.6C288.138 304.4 292.05 301.7 296.264 296.8C296.164 296.7 296.164 296.6 296.063 296.4C297.769 294.4 299.174 292.5 302.083 288.6L302.585 289.2C303.086 289.8 303.287 290.6 302.785 291.4L298.772 298.4C297.167 301.2 298.271 303.8 301.381 303.8C303.287 303.8 305.394 302.6 307.4 300.8C307.4 302.5 308.504 303.8 310.711 303.8C312.216 303.8 314.122 302.8 316.028 301.3C316.229 302.8 317.433 303.8 319.339 303.8C321.145 303.8 323.152 302.7 325.058 301L323.653 303.4H327.466L333.285 293.3C339.104 286 341.712 287 340.006 289.8L335.09 298.4C333.485 301.2 334.589 303.8 337.699 303.8C339.705 303.8 341.913 302.4 344.12 300.5C343.919 302.4 345.123 303.8 347.431 303.8C348.936 303.8 350.842 302.8 352.748 301.3C352.949 302.8 354.152 303.8 356.059 303.8C359.169 303.8 362.781 300.4 365.991 296.8C365.59 296.6 364.887 296 364.386 295.8ZM286.231 281.6C287.335 279.7 288.639 278.8 289.643 278.8C295.662 278.8 291.448 291.1 281.516 291.1H280.714L286.231 281.6ZM278.105 310.2C277.302 311.6 275.998 311.4 275.998 310.4C275.998 309.4 276.901 308.3 279.811 307.2L278.105 310.2ZM317.935 296.4C315.627 300 313.32 301.7 311.815 301.7C311.012 301.7 310.51 301.1 311.413 299.6L316.731 290.4C318.737 286.9 322.851 287.8 320.944 291.2L317.935 296.4ZM354.754 296.2C352.447 300 350.139 301.7 348.534 301.7C347.732 301.7 347.23 301.1 348.133 299.6L353.45 290.4C355.457 286.9 359.57 287.8 357.664 291.2L354.754 296.2Z" fill="white"/>
<path d="M237.272 331.8L236.971 332.1C234.262 335.3 231.554 337.8 229.848 337.8C229.045 337.8 228.544 337.2 229.447 335.7L234.965 326.1C236.57 323.2 235.065 321.1 232.958 321.1C231.353 321.1 229.547 322 227.641 323.9L229.045 321.4H225.233L219.113 332C218.912 331.9 218.812 331.8 218.611 331.7L218.31 332C216.605 333.9 214.498 334.8 212.592 334.8L216.204 328.6C218.511 324.6 216.404 320.9 212.792 320.9C209.883 320.9 207.576 322.1 205.368 325.9L203.462 329.1L201.857 331.9C201.757 331.8 201.656 331.8 201.556 331.7L201.255 332C198.145 335.6 195.436 337.9 192.426 339.2L202.86 321.4H199.048L192.326 333.1C189.416 335.8 187.109 337.3 186.407 337C185.504 336.6 186.407 335.2 186.908 334.4L194.332 321.5H190.52L184.4 332C184.3 331.9 184.199 331.9 184.099 331.8L183.798 332.1C181.089 335.3 178.381 337.8 176.675 337.8C175.872 337.8 175.371 337.2 176.274 335.7L181.792 326.1C183.397 323.2 181.892 321.1 179.785 321.1C178.18 321.1 176.374 322 174.468 323.9L175.872 321.4H172.06L165.94 331.9C165.84 331.8 165.739 331.7 165.539 331.7L165.238 332C162.529 335.2 159.82 337.7 158.115 337.7C157.312 337.7 156.81 337.1 157.713 335.6L163.833 324.9H161.626C161.726 323.3 160.121 321.1 157.613 321.1C155.606 321.1 152.697 322.7 151.092 325.5L147.179 332.3C146.878 332.1 146.577 331.9 146.376 331.8L146.075 332.1C143.367 335.3 139.955 337.8 136.243 337.8C133.635 337.8 132.03 335.2 134.337 331.3L135.441 329.4C136.143 329.5 136.845 329.6 137.648 329.6C141.661 329.6 146.276 327.5 149.286 322.3C150.389 320.4 150.791 318.7 150.791 317.2C150.791 313.8 148.584 311.5 145.774 311.5C143.668 311.5 141.159 313 139.454 315.9L133.535 326.1C131.327 324.9 130.123 322.8 130.123 320.7C130.123 318.9 130.926 317.2 132.531 315.9L131.327 313.7C128.619 315.6 127.415 318.2 127.415 320.8C127.415 323.8 129.12 326.7 132.23 328.3L131.127 330.3C128.418 334.9 130.023 340 135.441 340C139.654 340 142.865 338.1 145.473 335.6C144.671 338 145.875 340 148.584 340C150.088 340 151.995 339 153.901 337.5C154.102 339 155.305 340 157.212 340C159.017 340 161.024 338.9 162.93 337.2L161.526 339.6H165.338L171.157 329.5C176.976 322.2 179.584 323.2 177.879 326L172.963 334.6C171.358 337.4 172.461 340 175.571 340C177.578 340 179.885 338.6 182.093 336.6C181.591 338.7 182.594 340 184.5 340C186.306 340 188.413 338.5 190.119 336.9L188.012 340.5C182.895 342 179.584 344.1 179.584 347C179.584 350.6 185.203 351.4 187.912 346.7L190.821 341.7C194.031 340.7 197.142 338.7 200.452 335.5C199.951 340.8 206.974 342 211.288 336.6H212.09C213.495 336.6 215.401 336.1 217.107 335.1L214.598 339.5H218.411L224.23 329.4C230.049 322.1 232.657 323.1 230.952 325.9L226.036 334.5C224.43 337.3 225.534 339.9 228.644 339.9C231.754 339.9 235.366 336.5 238.576 332.9C238.476 332.6 237.774 332 237.272 331.8ZM142.564 317.6C143.668 315.7 144.972 314.8 145.975 314.8C147.38 314.8 148.082 315.7 148.082 317.1C148.082 320.6 143.768 327 137.849 327H137.046L142.564 317.6ZM156.008 332.4C153.7 336 151.393 337.7 149.888 337.7C149.085 337.7 148.584 337.1 149.486 335.6L154.804 326.4C156.81 322.9 160.924 323.8 159.018 327.2L156.008 332.4ZM184.902 346.2C184.099 347.6 182.795 347.4 182.795 346.4C182.795 345.4 183.698 344.3 186.607 343.2L184.902 346.2ZM210.585 332H210.385C209.181 332 208.177 333 208.177 334.3C208.177 334.8 208.278 335.2 208.579 335.6V335.7C206.773 338.8 202.459 338.2 204.666 334.2L207.576 329.2L209.381 326.1C212.09 321.6 215.702 323.4 213.394 327.3L210.585 332Z" fill="white"/>
<path d="M325.459 333.1C325.258 332.5 324.556 331.9 324.055 331.8L323.754 332.1C322.349 333.7 320.643 335.2 319.139 336.2C320.342 332.6 320.041 327 322.449 322.2L319.64 320.7C318.035 322.9 314.624 327.8 311.213 331.8L310.912 332.1C308.203 335.3 305.494 337.8 303.789 337.8C302.986 337.8 302.183 337 302.183 335.2V333.6C304.892 333.9 307.701 332.2 309.507 329.1L310.51 327.3C314.022 321.2 308.303 319.2 304.391 322.8L309.808 313.4H305.996L295.161 332.2C294.96 332 294.659 331.8 294.458 331.7L294.157 332C291.448 335.2 287.937 337.7 285.228 337.7C282.921 337.7 281.516 336.2 283.222 333.2L287.134 326.4C289.342 322.6 293.254 323.3 290.947 327.2L290.445 328.1H293.555L294.057 327.2C296.063 323.7 294.157 321.1 291.047 321.1C287.937 321.1 285.529 322.7 283.924 325.5L280.212 331.9C280.112 331.9 280.011 331.8 280.011 331.8L279.71 332.1C277.001 335.3 274.293 337.8 272.587 337.8C271.784 337.8 271.283 337.2 272.186 335.7L280.312 321.5H276.5L269.778 333.3C266.868 335.9 264.661 337.4 263.959 337.1C263.056 336.7 263.959 335.3 264.461 334.5L271.885 321.6H268.072L260.648 334.3C259.846 335 258.943 335.7 258.24 336.3C259.444 332.7 259.143 327.1 261.551 322.3L258.742 320.8C257.137 323 248.408 334.6 244.897 338.6C245.198 339.1 245.8 339.5 246.302 339.9C248.509 337.4 255.732 328.1 257.036 326.3C255.532 330.2 256.334 337.3 252.722 337.3C251.418 337.3 250.917 335.9 250.917 335.9L248.509 337.1C248.509 337.1 249.211 340.2 252.722 340.2C253.124 340.2 253.425 340.2 253.826 340.1H253.926C255.833 339.8 257.739 339 259.545 337.7C259.545 339.2 260.448 340.2 262.053 340.2C264.16 340.2 266.467 338.3 268.273 336.6C267.872 338.6 269.076 340.2 271.483 340.2C273.891 340.2 276.5 338.3 279.008 335.8C279.008 338.3 281.014 340.2 284.125 340.2C287.235 340.2 290.245 338.5 292.953 336.2L290.846 339.9H294.659L298.973 332.4V335.4C298.973 338.6 299.575 340.3 302.685 340.3C305.795 340.3 309.407 336.9 312.617 333.3C314.824 330.8 316.63 328.2 318.035 326.4C316.53 330.3 317.333 337.4 313.721 337.4C312.417 337.4 311.915 336 311.915 336L309.507 337.2C309.507 337.2 310.209 340.3 313.721 340.3C314.122 340.3 314.423 340.3 314.825 340.2H314.925C318.737 339.5 322.65 336.4 325.459 333.1ZM300.177 330.1L301.28 328.2C305.695 322.1 308.705 323.8 307.3 326.1L305.494 329.2C304.391 331.2 301.08 332.6 300.177 330.1Z" fill="white"/>
<path d="M325.359 335.7C324.155 335.7 323.152 336.7 323.152 337.9C323.152 339.1 324.055 340.1 325.359 340.1C326.563 340.1 327.566 339.2 327.566 337.9C327.566 336.7 326.563 335.7 325.359 335.7Z" fill="white"/>
<path d="M325.559 334.2H329.372L341.311 313.5H337.498L325.559 334.2Z" fill="white"/>
</svg>
